<?xml version="1.0" encoding="UTF-8" ?>
<!DOCTYPE svg PUBLIC "-//W3C//DTD SVG 1.1//EN" "http://www.w3.org/Graphics/SVG/1.1/DTD/svg11.dtd">
<svg width="138pt" height="200pt" viewBox="0 0 138 200" version="1.1" xmlns="http://www.w3.org/2000/svg">
<g id="#ffffffff">
<path fill="#5b9ad5" opacity="1.00" d=" M 67.20 1.12 C 71.15 -0.50 75.73 -0.23 79.60 1.48 C 84.09 3.89 85.23 9.61 84.98 14.28 C 84.32 20.99 81.38 27.22 78.37 33.17 C 73.46 42.83 65.65 50.50 58.18 58.19 C 53.14 63.24 46.86 66.82 41.69 71.71 C 37.81 75.05 39.60 82.18 44.20 83.85 C 49.38 86.79 55.40 88.90 59.06 93.89 C 62.11 98.08 64.99 102.74 65.74 107.96 C 65.77 113.09 61.03 116.84 56.55 118.35 C 50.76 119.79 44.70 118.71 38.99 117.41 C 36.45 116.84 34.58 114.88 32.69 113.23 C 24.63 105.65 16.15 98.37 9.44 89.51 C 6.30 85.45 4.39 80.25 5.22 75.08 C 6.89 66.31 12.22 58.60 19.24 53.21 C 33.47 41.90 42.22 25.64 53.86 11.99 C 57.54 7.59 61.64 3.08 67.20 1.12 Z" />
<path fill="#5b9ad5" opacity="1.00" d=" M 64.28 69.49 C 61.49 65.48 61.24 57.48 67.19 56.35 C 77.14 55.15 87.02 58.05 96.98 57.48 C 100.73 57.28 104.69 57.11 108.12 58.91 C 116.71 63.41 122.13 71.77 127.24 79.68 C 129.72 83.41 129.42 88.34 127.05 92.04 C 123.13 98.28 117.59 103.27 112.24 108.25 C 101.69 118.09 92.05 128.84 82.11 139.29 C 90.18 138.32 98.85 140.41 105.03 145.83 C 112.81 153.16 117.13 163.21 123.06 171.94 C 127.84 178.94 135.55 184.16 138.00 192.57 L 138.00 194.92 C 137.26 199.00 132.54 199.84 129.08 200.00 L 123.09 200.00 C 118.55 199.56 113.68 199.68 109.54 197.49 C 104.93 194.78 102.18 189.97 99.71 185.39 C 92.34 172.09 79.06 163.01 72.51 149.20 C 61.47 161.26 49.87 172.84 39.45 185.46 C 36.19 189.32 34.74 194.60 30.56 197.69 C 27.82 199.53 24.38 199.75 21.18 200.00 L 15.84 200.00 C 10.37 199.34 3.47 199.53 0.00 194.43 L 0.00 193.70 C 0.30 188.84 3.30 184.83 5.94 180.96 C 11.29 173.41 17.23 166.30 23.30 159.33 C 29.73 151.71 37.90 145.90 44.93 138.90 C 55.29 128.57 65.62 118.21 75.64 107.54 C 80.32 102.60 85.19 97.77 89.15 92.22 C 90.32 90.72 89.89 88.75 90.02 87.00 C 86.44 85.37 82.87 83.68 79.70 81.34 C 74.43 77.61 68.21 74.78 64.28 69.49 Z" />
</g>
</svg>
